<mxfile>
    <diagram id="MnHXRLiWCuT4bkUuz_oc" name="Bookshelves">
        <mxGraphModel dx="1137" dy="822" grid="1" gridSize="15" guides="1" tooltips="1" connect="1" arrows="1" fold="1" page="1" pageScale="1" pageWidth="480" pageHeight="480" background="none" math="0" shadow="0">
            <root>
                <mxCell id="0"/>
                <mxCell id="1" parent="0"/>
                <mxCell id="20" value="&lt;font face=&quot;feather&quot;&gt;Historical&lt;/font&gt;" style="whiteSpace=wrap;html=1;" parent="1" vertex="1">
                    <mxGeometry x="420" y="120" width="60" height="60" as="geometry"/>
                </mxCell>
                <mxCell id="30" value="&lt;font face=&quot;feather&quot;&gt;Textbooks&lt;br&gt;&lt;/font&gt;" style="whiteSpace=wrap;html=1;" parent="1" vertex="1">
                    <mxGeometry width="60" height="60" as="geometry"/>
                </mxCell>
                <mxCell id="31" value="&lt;font face=&quot;feather&quot;&gt;Skills&lt;br&gt;&lt;/font&gt;" style="whiteSpace=wrap;html=1;" parent="1" vertex="1">
                    <mxGeometry x="180" width="60" height="60" as="geometry"/>
                </mxCell>
                <mxCell id="32" value="&lt;font face=&quot;feather&quot;&gt;Music&lt;br&gt;&lt;/font&gt;" style="whiteSpace=wrap;html=1;" parent="1" vertex="1">
                    <mxGeometry x="120" width="60" height="60" as="geometry"/>
                </mxCell>
                <mxCell id="33" value="&lt;font face=&quot;feather&quot;&gt;Fishing&lt;/font&gt;" style="whiteSpace=wrap;html=1;" parent="1" vertex="1">
                    <mxGeometry x="300" width="60" height="60" as="geometry"/>
                </mxCell>
                <mxCell id="34" value="&lt;span style=&quot;color: rgb(240 , 240 , 240) ; font-family: &amp;#34;feather&amp;#34; ; font-size: 12px ; font-style: normal ; font-weight: 400 ; letter-spacing: normal ; text-align: center ; text-indent: 0px ; text-transform: none ; word-spacing: 0px ; background-color: rgb(42 , 42 , 42) ; display: inline ; float: none&quot;&gt;Non Fiction&lt;/span&gt;&lt;br&gt;" style="whiteSpace=wrap;html=1;" parent="1" vertex="1">
                    <mxGeometry x="360" width="60" height="60" as="geometry"/>
                </mxCell>
                <mxCell id="35" value="&lt;font face=&quot;feather&quot;&gt;Recipes&lt;br&gt;&lt;/font&gt;" style="whiteSpace=wrap;html=1;" parent="1" vertex="1">
                    <mxGeometry x="60" width="60" height="60" as="geometry"/>
                </mxCell>
                <mxCell id="36" value="&lt;font face=&quot;feather&quot;&gt;Fiction&lt;/font&gt;" style="whiteSpace=wrap;html=1;" parent="1" vertex="1">
                    <mxGeometry x="420" width="60" height="60" as="geometry"/>
                </mxCell>
                <mxCell id="37" value="&lt;font face=&quot;feather&quot;&gt;Vaudeville&lt;/font&gt;" style="whiteSpace=wrap;html=1;" parent="1" vertex="1">
                    <mxGeometry x="420" y="240" width="60" height="60" as="geometry"/>
                </mxCell>
                <mxCell id="39" value="&lt;span style=&quot;font-family: &amp;#34;feather&amp;#34;&quot;&gt;Need to Sort&lt;/span&gt;" style="whiteSpace=wrap;html=1;" parent="1" vertex="1">
                    <mxGeometry x="420" y="300" width="60" height="60" as="geometry"/>
                </mxCell>
                <mxCell id="41" value="&lt;font face=&quot;feather&quot;&gt;Political Memoir&lt;/font&gt;" style="whiteSpace=wrap;html=1;" parent="1" vertex="1">
                    <mxGeometry x="420" y="180" width="60" height="60" as="geometry"/>
                </mxCell>
                <mxCell id="44" value="&lt;font face=&quot;feather&quot; style=&quot;font-size: 10px&quot;&gt;Autobiography&lt;/font&gt;" style="whiteSpace=wrap;html=1;align=left;" parent="1" vertex="1">
                    <mxGeometry y="120" width="60" height="60" as="geometry"/>
                </mxCell>
                <mxCell id="45" value="&lt;font face=&quot;feather&quot;&gt;Life Story&lt;/font&gt;" style="whiteSpace=wrap;html=1;" parent="1" vertex="1">
                    <mxGeometry y="240" width="60" height="60" as="geometry"/>
                </mxCell>
                <mxCell id="46" value="&lt;font face=&quot;feather&quot;&gt;Masterpiece&lt;/font&gt;" style="whiteSpace=wrap;html=1;" parent="1" vertex="1">
                    <mxGeometry y="300" width="60" height="60" as="geometry"/>
                </mxCell>
                <mxCell id="47" value="&lt;font face=&quot;feather&quot;&gt;Biography&lt;/font&gt;" style="whiteSpace=wrap;html=1;" parent="1" vertex="1">
                    <mxGeometry y="180" width="60" height="60" as="geometry"/>
                </mxCell>
                <mxCell id="48" value="&lt;font face=&quot;feather&quot;&gt;Horror&lt;br&gt;&lt;/font&gt;" style="whiteSpace=wrap;html=1;" parent="1" vertex="1">
                    <mxGeometry y="420" width="60" height="60" as="geometry"/>
                </mxCell>
                <mxCell id="49" value="&lt;font face=&quot;feather&quot;&gt;Trashy&lt;/font&gt;" style="whiteSpace=wrap;html=1;" parent="1" vertex="1">
                    <mxGeometry x="180" y="420" width="60" height="60" as="geometry"/>
                </mxCell>
                <mxCell id="50" value="&lt;font face=&quot;feather&quot;&gt;Romance&lt;/font&gt;" style="whiteSpace=wrap;html=1;" parent="1" vertex="1">
                    <mxGeometry x="120" y="420" width="60" height="60" as="geometry"/>
                </mxCell>
                <mxCell id="51" value="&lt;font face=&quot;feather&quot;&gt;Mystery&lt;/font&gt;" style="whiteSpace=wrap;html=1;" parent="1" vertex="1">
                    <mxGeometry x="360" y="420" width="60" height="60" as="geometry"/>
                </mxCell>
                <mxCell id="52" value="&lt;font face=&quot;feather&quot;&gt;Sci-Fi&lt;/font&gt;" style="whiteSpace=wrap;html=1;" parent="1" vertex="1">
                    <mxGeometry x="300" y="420" width="60" height="60" as="geometry"/>
                </mxCell>
                <mxCell id="53" value="&lt;font face=&quot;feather&quot;&gt;Poetry&lt;/font&gt;" style="whiteSpace=wrap;html=1;" parent="1" vertex="1">
                    <mxGeometry x="60" y="420" width="60" height="60" as="geometry"/>
                </mxCell>
                <mxCell id="54" value="&lt;font face=&quot;feather&quot;&gt;Fantasy&lt;/font&gt;" style="whiteSpace=wrap;html=1;" parent="1" vertex="1">
                    <mxGeometry x="420" y="420" width="60" height="60" as="geometry"/>
                </mxCell>
                <mxCell id="56" value="&lt;font face=&quot;feather&quot;&gt;Childrens&lt;/font&gt;" style="whiteSpace=wrap;html=1;" parent="1" vertex="1">
                    <mxGeometry x="180" y="120" width="60" height="60" as="geometry"/>
                </mxCell>
                <mxCell id="57" value="&lt;font face=&quot;feather&quot;&gt;Toddlers&lt;/font&gt;" style="whiteSpace=wrap;html=1;" parent="1" vertex="1">
                    <mxGeometry x="120" y="120" width="60" height="60" as="geometry"/>
                </mxCell>
                <mxCell id="58" value="&lt;font face=&quot;feather&quot;&gt;Sports&lt;/font&gt;" style="whiteSpace=wrap;html=1;" parent="1" vertex="1">
                    <mxGeometry x="300" y="120" width="60" height="60" as="geometry"/>
                </mxCell>
                <mxCell id="59" value="&lt;font face=&quot;feather&quot;&gt;Pregnancy&lt;/font&gt;" style="whiteSpace=wrap;html=1;" parent="1" vertex="1">
                    <mxGeometry x="240" y="120" width="60" height="60" as="geometry"/>
                </mxCell>
                <mxCell id="60" value="&lt;font face=&quot;feather&quot;&gt;Satire&lt;/font&gt;" style="whiteSpace=wrap;html=1;" parent="1" vertex="1">
                    <mxGeometry x="180" y="300" width="60" height="60" as="geometry"/>
                </mxCell>
                <mxCell id="61" value="&lt;font face=&quot;feather&quot;&gt;Humour&lt;/font&gt;" style="whiteSpace=wrap;html=1;" parent="1" vertex="1">
                    <mxGeometry x="120" y="300" width="60" height="60" as="geometry"/>
                </mxCell>
                <mxCell id="62" value="&lt;font face=&quot;feather&quot;&gt;No Genre&lt;br&gt;&lt;/font&gt;" style="whiteSpace=wrap;html=1;" parent="1" vertex="1">
                    <mxGeometry x="300" y="300" width="60" height="60" as="geometry"/>
                </mxCell>
                <mxCell id="63" value="&lt;font face=&quot;feather&quot;&gt;Comics&lt;/font&gt;" style="whiteSpace=wrap;html=1;" parent="1" vertex="1">
                    <mxGeometry x="240" y="300" width="60" height="60" as="geometry"/>
                </mxCell>
                <mxCell id="64" value="&lt;font face=&quot;feather&quot;&gt;Opportunity&lt;/font&gt;" style="whiteSpace=wrap;html=1;" parent="1" vertex="1">
                    <mxGeometry x="240" width="60" height="60" as="geometry"/>
                </mxCell>
                <mxCell id="65" value="&lt;font face=&quot;feather&quot;&gt;Drama&lt;/font&gt;" style="whiteSpace=wrap;html=1;" parent="1" vertex="1">
                    <mxGeometry x="240" y="420" width="60" height="60" as="geometry"/>
                </mxCell>
            </root>
        </mxGraphModel>
    </diagram>
    <diagram id="H79nvtfC_lhW25GDWAJ8" name="Genres">
        <mxGraphModel dx="185" dy="506" grid="1" gridSize="10" guides="1" tooltips="1" connect="1" arrows="1" fold="1" page="1" pageScale="1" pageWidth="600" pageHeight="500" math="0" shadow="0">
            <root>
                <mxCell id="pmA7vRkRfB0VJjXid8ay-0"/>
                <mxCell id="pmA7vRkRfB0VJjXid8ay-1" parent="pmA7vRkRfB0VJjXid8ay-0"/>
                <mxCell id="pmA7vRkRfB0VJjXid8ay-2" value="&lt;font face=&quot;Times New Roman&quot; style=&quot;font-size: 10px&quot;&gt;Fiction&lt;/font&gt;" style="rounded=0;whiteSpace=wrap;html=1;fillColor=#1ba1e2;fontColor=#ffffff;strokeColor=#FFFFFF;" parent="pmA7vRkRfB0VJjXid8ay-1" vertex="1">
                    <mxGeometry x="120" width="40" height="20" as="geometry"/>
                </mxCell>
                <mxCell id="pmA7vRkRfB0VJjXid8ay-5" style="edgeStyle=orthogonalEdgeStyle;rounded=0;orthogonalLoop=1;jettySize=auto;html=1;entryX=0;entryY=0.5;entryDx=0;entryDy=0;strokeColor=#FFFFFF;" parent="pmA7vRkRfB0VJjXid8ay-1" source="pmA7vRkRfB0VJjXid8ay-4" target="pmA7vRkRfB0VJjXid8ay-2" edge="1">
                    <mxGeometry relative="1" as="geometry"/>
                </mxCell>
                <mxCell id="pmA7vRkRfB0VJjXid8ay-9" style="edgeStyle=orthogonalEdgeStyle;rounded=0;orthogonalLoop=1;jettySize=auto;html=1;entryX=0;entryY=0.5;entryDx=0;entryDy=0;strokeColor=#FFFFFF;" parent="pmA7vRkRfB0VJjXid8ay-1" source="pmA7vRkRfB0VJjXid8ay-4" target="pmA7vRkRfB0VJjXid8ay-8" edge="1">
                    <mxGeometry relative="1" as="geometry">
                        <Array as="points">
                            <mxPoint x="40" y="50"/>
                        </Array>
                    </mxGeometry>
                </mxCell>
                <mxCell id="pmA7vRkRfB0VJjXid8ay-4" value="&lt;font face=&quot;Times New Roman&quot; style=&quot;font-size: 10px&quot;&gt;Available at Start&lt;/font&gt;" style="rounded=0;whiteSpace=wrap;html=1;fontColor=#ffffff;gradientDirection=south;fillColor=#FF0080;strokeColor=#FFFFFF;" parent="pmA7vRkRfB0VJjXid8ay-1" vertex="1">
                    <mxGeometry width="80" height="20" as="geometry"/>
                </mxCell>
                <mxCell id="pmA7vRkRfB0VJjXid8ay-11" style="edgeStyle=orthogonalEdgeStyle;rounded=0;orthogonalLoop=1;jettySize=auto;html=1;entryX=0;entryY=0.5;entryDx=0;entryDy=0;strokeColor=#FFFFFF;" parent="pmA7vRkRfB0VJjXid8ay-1" source="pmA7vRkRfB0VJjXid8ay-6" target="pmA7vRkRfB0VJjXid8ay-10" edge="1">
                    <mxGeometry relative="1" as="geometry"/>
                </mxCell>
                <mxCell id="pmA7vRkRfB0VJjXid8ay-13" style="edgeStyle=orthogonalEdgeStyle;rounded=0;orthogonalLoop=1;jettySize=auto;html=1;entryX=0;entryY=0.5;entryDx=0;entryDy=0;strokeColor=#FFFFFF;" parent="pmA7vRkRfB0VJjXid8ay-1" source="pmA7vRkRfB0VJjXid8ay-6" target="pmA7vRkRfB0VJjXid8ay-12" edge="1">
                    <mxGeometry relative="1" as="geometry">
                        <Array as="points">
                            <mxPoint x="20" y="130"/>
                        </Array>
                    </mxGeometry>
                </mxCell>
                <mxCell id="pmA7vRkRfB0VJjXid8ay-43" style="edgeStyle=orthogonalEdgeStyle;rounded=0;orthogonalLoop=1;jettySize=auto;html=1;entryX=0;entryY=0.5;entryDx=0;entryDy=0;strokeColor=#FFFFFF;" parent="pmA7vRkRfB0VJjXid8ay-1" source="pmA7vRkRfB0VJjXid8ay-6" target="pmA7vRkRfB0VJjXid8ay-41" edge="1">
                    <mxGeometry relative="1" as="geometry">
                        <Array as="points">
                            <mxPoint x="10" y="170"/>
                        </Array>
                    </mxGeometry>
                </mxCell>
                <mxCell id="pmA7vRkRfB0VJjXid8ay-6" value="&lt;font face=&quot;Times New Roman&quot; style=&quot;font-size: 10px&quot;&gt;1&lt;/font&gt;" style="rounded=0;whiteSpace=wrap;html=1;fillColor=#a20025;fontColor=#ffffff;strokeColor=#FFFFFF;" parent="pmA7vRkRfB0VJjXid8ay-1" vertex="1">
                    <mxGeometry y="80" width="20" height="20" as="geometry"/>
                </mxCell>
                <mxCell id="pmA7vRkRfB0VJjXid8ay-8" value="&lt;font face=&quot;Times New Roman&quot; style=&quot;font-size: 10px&quot;&gt;Non-Fiction&lt;/font&gt;" style="rounded=0;whiteSpace=wrap;html=1;fillColor=#1ba1e2;fontColor=#ffffff;strokeColor=#FFFFFF;" parent="pmA7vRkRfB0VJjXid8ay-1" vertex="1">
                    <mxGeometry x="120" y="40" width="60" height="20" as="geometry"/>
                </mxCell>
                <mxCell id="uikIPxH3CUJWsQ4aGfVe-12" style="edgeStyle=none;rounded=0;orthogonalLoop=1;jettySize=auto;html=1;entryX=0;entryY=0;entryDx=0;entryDy=0;" edge="1" parent="pmA7vRkRfB0VJjXid8ay-1" source="pmA7vRkRfB0VJjXid8ay-10" target="pmA7vRkRfB0VJjXid8ay-14">
                    <mxGeometry relative="1" as="geometry"/>
                </mxCell>
                <mxCell id="pmA7vRkRfB0VJjXid8ay-10" value="&lt;font face=&quot;Times New Roman&quot;&gt;&lt;span style=&quot;font-size: 10px&quot;&gt;Painting 1&lt;/span&gt;&lt;/font&gt;" style="rounded=0;whiteSpace=wrap;html=1;fillColor=#e3c800;fontColor=#ffffff;strokeColor=#FFFFFF;" parent="pmA7vRkRfB0VJjXid8ay-1" vertex="1">
                    <mxGeometry x="40" y="80" width="50" height="20" as="geometry"/>
                </mxCell>
                <mxCell id="uikIPxH3CUJWsQ4aGfVe-13" style="edgeStyle=none;rounded=0;orthogonalLoop=1;jettySize=auto;html=1;entryX=0;entryY=1;entryDx=0;entryDy=0;" edge="1" parent="pmA7vRkRfB0VJjXid8ay-1" source="pmA7vRkRfB0VJjXid8ay-12" target="pmA7vRkRfB0VJjXid8ay-14">
                    <mxGeometry relative="1" as="geometry"/>
                </mxCell>
                <mxCell id="pmA7vRkRfB0VJjXid8ay-12" value="&lt;font face=&quot;Times New Roman&quot;&gt;&lt;span style=&quot;font-size: 10px&quot;&gt;Street Art 1&lt;/span&gt;&lt;/font&gt;" style="rounded=0;whiteSpace=wrap;html=1;fillColor=#e3c800;fontColor=#ffffff;strokeColor=#FFFFFF;" parent="pmA7vRkRfB0VJjXid8ay-1" vertex="1">
                    <mxGeometry x="40" y="120" width="50" height="20" as="geometry"/>
                </mxCell>
                <mxCell id="pmA7vRkRfB0VJjXid8ay-14" value="&lt;font face=&quot;Times New Roman&quot; style=&quot;font-size: 10px&quot;&gt;Comic&lt;/font&gt;" style="rounded=0;whiteSpace=wrap;html=1;fillColor=#1ba1e2;fontColor=#ffffff;strokeColor=#FFFFFF;" parent="pmA7vRkRfB0VJjXid8ay-1" vertex="1">
                    <mxGeometry x="120" y="100" width="40" height="20" as="geometry"/>
                </mxCell>
                <mxCell id="pmA7vRkRfB0VJjXid8ay-21" style="edgeStyle=orthogonalEdgeStyle;rounded=0;orthogonalLoop=1;jettySize=auto;html=1;exitX=0.5;exitY=1;exitDx=0;exitDy=0;entryX=0.5;entryY=0;entryDx=0;entryDy=0;strokeColor=#FFFFFF;" parent="pmA7vRkRfB0VJjXid8ay-1" source="pmA7vRkRfB0VJjXid8ay-19" target="pmA7vRkRfB0VJjXid8ay-20" edge="1">
                    <mxGeometry relative="1" as="geometry"/>
                </mxCell>
                <mxCell id="pmA7vRkRfB0VJjXid8ay-19" value="&lt;font face=&quot;Times New Roman&quot; style=&quot;font-size: 10px&quot;&gt;25 Novels&lt;/font&gt;" style="rounded=0;whiteSpace=wrap;html=1;fontColor=#ffffff;fillColor=#FF0080;strokeColor=#FFFFFF;" parent="pmA7vRkRfB0VJjXid8ay-1" vertex="1">
                    <mxGeometry x="210" width="60" height="20" as="geometry"/>
                </mxCell>
                <mxCell id="pmA7vRkRfB0VJjXid8ay-20" value="&lt;font face=&quot;Times New Roman&quot; style=&quot;font-size: 10px&quot;&gt;Masterpiece&lt;/font&gt;" style="rounded=0;whiteSpace=wrap;html=1;fillColor=#1ba1e2;fontColor=#ffffff;strokeColor=#FFFFFF;" parent="pmA7vRkRfB0VJjXid8ay-1" vertex="1">
                    <mxGeometry x="210" y="40" width="60" height="20" as="geometry"/>
                </mxCell>
                <mxCell id="pmA7vRkRfB0VJjXid8ay-22" style="edgeStyle=orthogonalEdgeStyle;rounded=0;orthogonalLoop=1;jettySize=auto;html=1;exitX=0.5;exitY=1;exitDx=0;exitDy=0;entryX=0.5;entryY=0;entryDx=0;entryDy=0;strokeColor=#FFFFFF;" parent="pmA7vRkRfB0VJjXid8ay-1" source="pmA7vRkRfB0VJjXid8ay-23" target="pmA7vRkRfB0VJjXid8ay-24" edge="1">
                    <mxGeometry relative="1" as="geometry"/>
                </mxCell>
                <mxCell id="pmA7vRkRfB0VJjXid8ay-27" style="edgeStyle=orthogonalEdgeStyle;rounded=0;orthogonalLoop=1;jettySize=auto;html=1;entryX=0;entryY=0.5;entryDx=0;entryDy=0;strokeColor=#FFFFFF;" parent="pmA7vRkRfB0VJjXid8ay-1" source="pmA7vRkRfB0VJjXid8ay-23" target="pmA7vRkRfB0VJjXid8ay-26" edge="1">
                    <mxGeometry relative="1" as="geometry">
                        <Array as="points">
                            <mxPoint x="330" y="10"/>
                        </Array>
                    </mxGeometry>
                </mxCell>
                <mxCell id="pmA7vRkRfB0VJjXid8ay-32" style="orthogonalLoop=1;jettySize=auto;html=1;exitX=1;exitY=0.5;exitDx=0;exitDy=0;entryX=0;entryY=0.5;entryDx=0;entryDy=0;strokeColor=#FFFFFF;" parent="pmA7vRkRfB0VJjXid8ay-1" source="pmA7vRkRfB0VJjXid8ay-23" target="pmA7vRkRfB0VJjXid8ay-30" edge="1">
                    <mxGeometry relative="1" as="geometry"/>
                </mxCell>
                <mxCell id="pmA7vRkRfB0VJjXid8ay-23" value="&lt;font face=&quot;Times New Roman&quot; style=&quot;font-size: 10px&quot;&gt;Opportunity&lt;/font&gt;" style="rounded=0;whiteSpace=wrap;html=1;fontColor=#ffffff;fillColor=#FF0080;strokeColor=#FFFFFF;" parent="pmA7vRkRfB0VJjXid8ay-1" vertex="1">
                    <mxGeometry x="300" y="40" width="60" height="20" as="geometry"/>
                </mxCell>
                <mxCell id="pmA7vRkRfB0VJjXid8ay-38" style="edgeStyle=orthogonalEdgeStyle;rounded=0;orthogonalLoop=1;jettySize=auto;html=1;entryX=0.5;entryY=0;entryDx=0;entryDy=0;strokeColor=#FFFFFF;" parent="pmA7vRkRfB0VJjXid8ay-1" source="pmA7vRkRfB0VJjXid8ay-24" target="pmA7vRkRfB0VJjXid8ay-36" edge="1">
                    <mxGeometry relative="1" as="geometry"/>
                </mxCell>
                <mxCell id="pmA7vRkRfB0VJjXid8ay-24" value="&lt;font face=&quot;Times New Roman&quot; style=&quot;font-size: 10px&quot;&gt;Biography&lt;/font&gt;" style="rounded=0;whiteSpace=wrap;html=1;fillColor=#1ba1e2;fontColor=#ffffff;strokeColor=#FFFFFF;" parent="pmA7vRkRfB0VJjXid8ay-1" vertex="1">
                    <mxGeometry x="300" y="80" width="60" height="20" as="geometry"/>
                </mxCell>
                <mxCell id="pmA7vRkRfB0VJjXid8ay-29" style="edgeStyle=orthogonalEdgeStyle;rounded=0;orthogonalLoop=1;jettySize=auto;html=1;strokeColor=#FFFFFF;" parent="pmA7vRkRfB0VJjXid8ay-1" source="pmA7vRkRfB0VJjXid8ay-26" target="pmA7vRkRfB0VJjXid8ay-28" edge="1">
                    <mxGeometry relative="1" as="geometry"/>
                </mxCell>
                <mxCell id="pmA7vRkRfB0VJjXid8ay-26" value="&lt;font face=&quot;Times New Roman&quot;&gt;&lt;span style=&quot;font-size: 10px&quot;&gt;Top Level Career&lt;/span&gt;&lt;/font&gt;" style="rounded=0;whiteSpace=wrap;html=1;fillColor=#60a917;fontColor=#ffffff;strokeColor=#FFFFFF;" parent="pmA7vRkRfB0VJjXid8ay-1" vertex="1">
                    <mxGeometry x="400" width="80" height="20" as="geometry"/>
                </mxCell>
                <mxCell id="pmA7vRkRfB0VJjXid8ay-28" value="&lt;font face=&quot;Times New Roman&quot; style=&quot;font-size: 10px&quot;&gt;Life Story&lt;/font&gt;" style="rounded=0;whiteSpace=wrap;html=1;fillColor=#1ba1e2;fontColor=#ffffff;strokeColor=#FFFFFF;" parent="pmA7vRkRfB0VJjXid8ay-1" vertex="1">
                    <mxGeometry x="520" width="60" height="20" as="geometry"/>
                </mxCell>
                <mxCell id="pmA7vRkRfB0VJjXid8ay-35" style="edgeStyle=orthogonalEdgeStyle;orthogonalLoop=1;jettySize=auto;html=1;rounded=0;strokeColor=#FFFFFF;" parent="pmA7vRkRfB0VJjXid8ay-1" source="pmA7vRkRfB0VJjXid8ay-30" target="pmA7vRkRfB0VJjXid8ay-33" edge="1">
                    <mxGeometry relative="1" as="geometry"/>
                </mxCell>
                <mxCell id="pmA7vRkRfB0VJjXid8ay-30" value="&lt;font face=&quot;Times New Roman&quot;&gt;&lt;span style=&quot;font-size: 10px&quot;&gt;Political Career&lt;/span&gt;&lt;/font&gt;" style="rounded=0;whiteSpace=wrap;html=1;fillColor=#60a917;fontColor=#ffffff;strokeColor=#FFFFFF;" parent="pmA7vRkRfB0VJjXid8ay-1" vertex="1">
                    <mxGeometry x="400" y="40" width="80" height="20" as="geometry"/>
                </mxCell>
                <mxCell id="pmA7vRkRfB0VJjXid8ay-33" value="&lt;font face=&quot;Times New Roman&quot;&gt;&lt;span style=&quot;font-size: 10px&quot;&gt;Political Memoir&lt;/span&gt;&lt;/font&gt;" style="rounded=0;whiteSpace=wrap;html=1;fillColor=#1ba1e2;fontColor=#ffffff;strokeColor=#FFFFFF;" parent="pmA7vRkRfB0VJjXid8ay-1" vertex="1">
                    <mxGeometry x="520" y="40" width="80" height="20" as="geometry"/>
                </mxCell>
                <mxCell id="pmA7vRkRfB0VJjXid8ay-40" style="edgeStyle=orthogonalEdgeStyle;rounded=0;orthogonalLoop=1;jettySize=auto;html=1;entryX=0.5;entryY=0;entryDx=0;entryDy=0;strokeColor=#FFFFFF;" parent="pmA7vRkRfB0VJjXid8ay-1" source="pmA7vRkRfB0VJjXid8ay-36" target="pmA7vRkRfB0VJjXid8ay-39" edge="1">
                    <mxGeometry relative="1" as="geometry"/>
                </mxCell>
                <mxCell id="pmA7vRkRfB0VJjXid8ay-36" value="&lt;font face=&quot;Times New Roman&quot; style=&quot;font-size: 10px&quot;&gt;3 Biographies&lt;/font&gt;" style="rounded=0;whiteSpace=wrap;html=1;strokeColor=#FFFFFF;" parent="pmA7vRkRfB0VJjXid8ay-1" vertex="1">
                    <mxGeometry x="300" y="120" width="60" height="20" as="geometry"/>
                </mxCell>
                <mxCell id="pmA7vRkRfB0VJjXid8ay-39" value="&lt;font face=&quot;Times New Roman&quot; style=&quot;font-size: 10px&quot;&gt;Autobiography&lt;/font&gt;" style="rounded=0;whiteSpace=wrap;html=1;fillColor=#1ba1e2;fontColor=#ffffff;strokeColor=#FFFFFF;" parent="pmA7vRkRfB0VJjXid8ay-1" vertex="1">
                    <mxGeometry x="300" y="160" width="60" height="20" as="geometry"/>
                </mxCell>
                <mxCell id="uikIPxH3CUJWsQ4aGfVe-5" style="edgeStyle=none;rounded=0;orthogonalLoop=1;jettySize=auto;html=1;entryX=0;entryY=0.5;entryDx=0;entryDy=0;" edge="1" parent="pmA7vRkRfB0VJjXid8ay-1" source="pmA7vRkRfB0VJjXid8ay-41" target="uikIPxH3CUJWsQ4aGfVe-4">
                    <mxGeometry relative="1" as="geometry"/>
                </mxCell>
                <mxCell id="uikIPxH3CUJWsQ4aGfVe-57" style="edgeStyle=orthogonalEdgeStyle;rounded=0;orthogonalLoop=1;jettySize=auto;html=1;exitX=1;exitY=1;exitDx=0;exitDy=0;entryX=0;entryY=0;entryDx=0;entryDy=0;" edge="1" parent="pmA7vRkRfB0VJjXid8ay-1" source="pmA7vRkRfB0VJjXid8ay-41" target="uikIPxH3CUJWsQ4aGfVe-55">
                    <mxGeometry relative="1" as="geometry">
                        <Array as="points">
                            <mxPoint x="80" y="190"/>
                            <mxPoint x="280" y="190"/>
                        </Array>
                    </mxGeometry>
                </mxCell>
                <mxCell id="pmA7vRkRfB0VJjXid8ay-41" value="&lt;font face=&quot;Times New Roman&quot; style=&quot;font-size: 10px&quot;&gt;Sci-Fi&lt;/font&gt;" style="rounded=0;whiteSpace=wrap;html=1;fillColor=#1ba1e2;fontColor=#ffffff;strokeColor=#FFFFFF;" parent="pmA7vRkRfB0VJjXid8ay-1" vertex="1">
                    <mxGeometry x="40" y="160" width="40" height="20" as="geometry"/>
                </mxCell>
                <mxCell id="uikIPxH3CUJWsQ4aGfVe-8" style="edgeStyle=none;rounded=0;orthogonalLoop=1;jettySize=auto;html=1;entryX=0.5;entryY=1;entryDx=0;entryDy=0;" edge="1" parent="pmA7vRkRfB0VJjXid8ay-1" source="pmA7vRkRfB0VJjXid8ay-44" target="pmA7vRkRfB0VJjXid8ay-41">
                    <mxGeometry relative="1" as="geometry"/>
                </mxCell>
                <mxCell id="pmA7vRkRfB0VJjXid8ay-44" value="&lt;font face=&quot;Times New Roman&quot; style=&quot;font-size: 10px&quot;&gt;Computer Whiz&lt;/font&gt;" style="rounded=0;whiteSpace=wrap;html=1;fontColor=#ffffff;fillColor=#5800B0;strokeColor=#FFFFFF;" parent="pmA7vRkRfB0VJjXid8ay-1" vertex="1">
                    <mxGeometry x="20" y="200" width="80" height="20" as="geometry"/>
                </mxCell>
                <mxCell id="uikIPxH3CUJWsQ4aGfVe-1" style="edgeStyle=orthogonalEdgeStyle;rounded=0;orthogonalLoop=1;jettySize=auto;html=1;exitX=1;exitY=0.5;exitDx=0;exitDy=0;entryX=0;entryY=0.5;entryDx=0;entryDy=0;strokeColor=#FFFFFF;exitPerimeter=0;" edge="1" parent="pmA7vRkRfB0VJjXid8ay-1" source="uikIPxH3CUJWsQ4aGfVe-2" target="uikIPxH3CUJWsQ4aGfVe-3">
                    <mxGeometry relative="1" as="geometry">
                        <Array as="points"/>
                    </mxGeometry>
                </mxCell>
                <mxCell id="uikIPxH3CUJWsQ4aGfVe-2" value="&lt;font face=&quot;Times New Roman&quot; style=&quot;font-size: 10px&quot;&gt;Journalism 3&lt;/font&gt;" style="rounded=0;whiteSpace=wrap;html=1;fontColor=#ffffff;fillColor=#60a917;strokeColor=#FFFFFF;" vertex="1" parent="pmA7vRkRfB0VJjXid8ay-1">
                    <mxGeometry x="400" y="80" width="60" height="20" as="geometry"/>
                </mxCell>
                <mxCell id="uikIPxH3CUJWsQ4aGfVe-3" value="&lt;font face=&quot;Times New Roman&quot; style=&quot;font-size: 10px&quot;&gt;Article&lt;/font&gt;" style="rounded=0;whiteSpace=wrap;html=1;fillColor=#1ba1e2;fontColor=#ffffff;strokeColor=#FFFFFF;" vertex="1" parent="pmA7vRkRfB0VJjXid8ay-1">
                    <mxGeometry x="490" y="80" width="40" height="20" as="geometry"/>
                </mxCell>
                <mxCell id="uikIPxH3CUJWsQ4aGfVe-7" style="edgeStyle=none;rounded=0;orthogonalLoop=1;jettySize=auto;html=1;entryX=0;entryY=0.5;entryDx=0;entryDy=0;" edge="1" parent="pmA7vRkRfB0VJjXid8ay-1" source="uikIPxH3CUJWsQ4aGfVe-4" target="uikIPxH3CUJWsQ4aGfVe-6">
                    <mxGeometry relative="1" as="geometry"/>
                </mxCell>
                <mxCell id="uikIPxH3CUJWsQ4aGfVe-4" value="&lt;font face=&quot;Times New Roman&quot; style=&quot;font-size: 10px&quot;&gt;3 Sci-Fi&lt;/font&gt;" style="rounded=0;whiteSpace=wrap;html=1;strokeColor=#FFFFFF;" vertex="1" parent="pmA7vRkRfB0VJjXid8ay-1">
                    <mxGeometry x="100" y="160" width="40" height="20" as="geometry"/>
                </mxCell>
                <mxCell id="uikIPxH3CUJWsQ4aGfVe-6" value="&lt;font face=&quot;Times New Roman&quot; style=&quot;font-size: 10px&quot;&gt;Fantasy&lt;/font&gt;" style="rounded=0;whiteSpace=wrap;html=1;fillColor=#1ba1e2;fontColor=#ffffff;strokeColor=#FFFFFF;" vertex="1" parent="pmA7vRkRfB0VJjXid8ay-1">
                    <mxGeometry x="160" y="160" width="40" height="20" as="geometry"/>
                </mxCell>
                <mxCell id="uikIPxH3CUJWsQ4aGfVe-20" style="edgeStyle=orthogonalEdgeStyle;rounded=0;orthogonalLoop=1;jettySize=auto;html=1;entryX=0;entryY=0.5;entryDx=0;entryDy=0;" edge="1" parent="pmA7vRkRfB0VJjXid8ay-1" source="uikIPxH3CUJWsQ4aGfVe-9" target="uikIPxH3CUJWsQ4aGfVe-10">
                    <mxGeometry relative="1" as="geometry">
                        <Array as="points">
                            <mxPoint x="10" y="250"/>
                        </Array>
                    </mxGeometry>
                </mxCell>
                <mxCell id="uikIPxH3CUJWsQ4aGfVe-21" style="edgeStyle=orthogonalEdgeStyle;rounded=0;orthogonalLoop=1;jettySize=auto;html=1;" edge="1" parent="pmA7vRkRfB0VJjXid8ay-1" source="uikIPxH3CUJWsQ4aGfVe-9" target="uikIPxH3CUJWsQ4aGfVe-18">
                    <mxGeometry relative="1" as="geometry"/>
                </mxCell>
                <mxCell id="uikIPxH3CUJWsQ4aGfVe-22" style="edgeStyle=orthogonalEdgeStyle;rounded=0;orthogonalLoop=1;jettySize=auto;html=1;entryX=0;entryY=0.5;entryDx=0;entryDy=0;" edge="1" parent="pmA7vRkRfB0VJjXid8ay-1" source="uikIPxH3CUJWsQ4aGfVe-9" target="uikIPxH3CUJWsQ4aGfVe-17">
                    <mxGeometry relative="1" as="geometry">
                        <Array as="points">
                            <mxPoint x="20" y="330"/>
                        </Array>
                    </mxGeometry>
                </mxCell>
                <mxCell id="uikIPxH3CUJWsQ4aGfVe-28" style="edgeStyle=orthogonalEdgeStyle;rounded=0;orthogonalLoop=1;jettySize=auto;html=1;entryX=0;entryY=0.5;entryDx=0;entryDy=0;" edge="1" parent="pmA7vRkRfB0VJjXid8ay-1" source="uikIPxH3CUJWsQ4aGfVe-9" target="uikIPxH3CUJWsQ4aGfVe-27">
                    <mxGeometry relative="1" as="geometry">
                        <Array as="points">
                            <mxPoint x="10" y="410"/>
                        </Array>
                    </mxGeometry>
                </mxCell>
                <mxCell id="uikIPxH3CUJWsQ4aGfVe-9" value="&lt;font face=&quot;Times New Roman&quot; style=&quot;font-size: 10px&quot;&gt;2&lt;/font&gt;" style="rounded=0;whiteSpace=wrap;html=1;fillColor=#a20025;fontColor=#ffffff;strokeColor=#FFFFFF;" vertex="1" parent="pmA7vRkRfB0VJjXid8ay-1">
                    <mxGeometry y="280" width="20" height="20" as="geometry"/>
                </mxCell>
                <mxCell id="uikIPxH3CUJWsQ4aGfVe-10" value="&lt;font face=&quot;Times New Roman&quot; style=&quot;font-size: 10px&quot;&gt;Trashy&lt;/font&gt;" style="rounded=0;whiteSpace=wrap;html=1;fillColor=#1ba1e2;fontColor=#ffffff;strokeColor=#FFFFFF;" vertex="1" parent="pmA7vRkRfB0VJjXid8ay-1">
                    <mxGeometry x="40" y="240" width="40" height="20" as="geometry"/>
                </mxCell>
                <mxCell id="uikIPxH3CUJWsQ4aGfVe-16" style="edgeStyle=none;rounded=0;orthogonalLoop=1;jettySize=auto;html=1;entryX=1;entryY=0.5;entryDx=0;entryDy=0;" edge="1" parent="pmA7vRkRfB0VJjXid8ay-1" source="uikIPxH3CUJWsQ4aGfVe-15" target="uikIPxH3CUJWsQ4aGfVe-10">
                    <mxGeometry relative="1" as="geometry"/>
                </mxCell>
                <mxCell id="uikIPxH3CUJWsQ4aGfVe-15" value="&lt;font face=&quot;Times New Roman&quot; style=&quot;font-size: 10px&quot;&gt;Inappropriate&lt;/font&gt;" style="rounded=0;whiteSpace=wrap;html=1;fontColor=#ffffff;fillColor=#5800B0;strokeColor=#FFFFFF;" vertex="1" parent="pmA7vRkRfB0VJjXid8ay-1">
                    <mxGeometry x="100" y="240" width="70" height="20" as="geometry"/>
                </mxCell>
                <mxCell id="uikIPxH3CUJWsQ4aGfVe-26" style="edgeStyle=orthogonalEdgeStyle;rounded=0;orthogonalLoop=1;jettySize=auto;html=1;entryX=0;entryY=0.5;entryDx=0;entryDy=0;" edge="1" parent="pmA7vRkRfB0VJjXid8ay-1" source="uikIPxH3CUJWsQ4aGfVe-17" target="uikIPxH3CUJWsQ4aGfVe-23">
                    <mxGeometry relative="1" as="geometry"/>
                </mxCell>
                <mxCell id="uikIPxH3CUJWsQ4aGfVe-17" value="&lt;font face=&quot;Times New Roman&quot; style=&quot;font-size: 10px&quot;&gt;Avant Garde&lt;/font&gt;" style="rounded=0;whiteSpace=wrap;html=1;fontColor=#ffffff;fillColor=#5800B0;strokeColor=#FFFFFF;" vertex="1" parent="pmA7vRkRfB0VJjXid8ay-1">
                    <mxGeometry x="40" y="320" width="60" height="20" as="geometry"/>
                </mxCell>
                <mxCell id="uikIPxH3CUJWsQ4aGfVe-25" style="edgeStyle=orthogonalEdgeStyle;rounded=0;orthogonalLoop=1;jettySize=auto;html=1;entryX=0;entryY=0.5;entryDx=0;entryDy=0;" edge="1" parent="pmA7vRkRfB0VJjXid8ay-1" source="uikIPxH3CUJWsQ4aGfVe-18" target="uikIPxH3CUJWsQ4aGfVe-24">
                    <mxGeometry relative="1" as="geometry"/>
                </mxCell>
                <mxCell id="uikIPxH3CUJWsQ4aGfVe-18" value="&lt;font face=&quot;Times New Roman&quot;&gt;&lt;span style=&quot;font-size: 10px&quot;&gt;Supernatural Fan&lt;/span&gt;&lt;/font&gt;" style="rounded=0;whiteSpace=wrap;html=1;fontColor=#ffffff;fillColor=#5800B0;strokeColor=#FFFFFF;" vertex="1" parent="pmA7vRkRfB0VJjXid8ay-1">
                    <mxGeometry x="40" y="280" width="80" height="20" as="geometry"/>
                </mxCell>
                <mxCell id="uikIPxH3CUJWsQ4aGfVe-23" value="&lt;font face=&quot;Times New Roman&quot; style=&quot;font-size: 10px&quot;&gt;Poetry&lt;/font&gt;" style="rounded=0;whiteSpace=wrap;html=1;fillColor=#1ba1e2;fontColor=#ffffff;strokeColor=#FFFFFF;" vertex="1" parent="pmA7vRkRfB0VJjXid8ay-1">
                    <mxGeometry x="120" y="320" width="40" height="20" as="geometry"/>
                </mxCell>
                <mxCell id="uikIPxH3CUJWsQ4aGfVe-24" value="&lt;font face=&quot;Times New Roman&quot; style=&quot;font-size: 10px&quot;&gt;Horror&lt;/font&gt;" style="rounded=0;whiteSpace=wrap;html=1;fillColor=#1ba1e2;fontColor=#ffffff;strokeColor=#FFFFFF;" vertex="1" parent="pmA7vRkRfB0VJjXid8ay-1">
                    <mxGeometry x="140" y="280" width="40" height="20" as="geometry"/>
                </mxCell>
                <mxCell id="uikIPxH3CUJWsQ4aGfVe-30" style="edgeStyle=orthogonalEdgeStyle;rounded=0;orthogonalLoop=1;jettySize=auto;html=1;" edge="1" parent="pmA7vRkRfB0VJjXid8ay-1" source="uikIPxH3CUJWsQ4aGfVe-27" target="uikIPxH3CUJWsQ4aGfVe-29">
                    <mxGeometry relative="1" as="geometry"/>
                </mxCell>
                <mxCell id="uikIPxH3CUJWsQ4aGfVe-27" value="&lt;font face=&quot;Times New Roman&quot; style=&quot;font-size: 10px&quot;&gt;Good Sense of Humour&lt;/font&gt;" style="rounded=0;whiteSpace=wrap;html=1;fontColor=#ffffff;fillColor=#5800B0;strokeColor=#FFFFFF;" vertex="1" parent="pmA7vRkRfB0VJjXid8ay-1">
                    <mxGeometry x="40" y="400" width="100" height="20" as="geometry"/>
                </mxCell>
                <mxCell id="uikIPxH3CUJWsQ4aGfVe-43" style="edgeStyle=orthogonalEdgeStyle;rounded=0;orthogonalLoop=1;jettySize=auto;html=1;entryX=0.5;entryY=1;entryDx=0;entryDy=0;exitX=1;exitY=0.5;exitDx=0;exitDy=0;" edge="1" parent="pmA7vRkRfB0VJjXid8ay-1" source="uikIPxH3CUJWsQ4aGfVe-29" target="uikIPxH3CUJWsQ4aGfVe-42">
                    <mxGeometry relative="1" as="geometry"/>
                </mxCell>
                <mxCell id="uikIPxH3CUJWsQ4aGfVe-77" style="edgeStyle=orthogonalEdgeStyle;rounded=0;orthogonalLoop=1;jettySize=auto;html=1;entryX=0;entryY=1;entryDx=0;entryDy=0;exitX=0.5;exitY=1;exitDx=0;exitDy=0;strokeColor=#FFFFFF;" edge="1" parent="pmA7vRkRfB0VJjXid8ay-1" source="uikIPxH3CUJWsQ4aGfVe-29" target="uikIPxH3CUJWsQ4aGfVe-55">
                    <mxGeometry relative="1" as="geometry">
                        <Array as="points">
                            <mxPoint x="180" y="420"/>
                            <mxPoint x="180" y="430"/>
                            <mxPoint x="280" y="430"/>
                        </Array>
                    </mxGeometry>
                </mxCell>
                <mxCell id="uikIPxH3CUJWsQ4aGfVe-29" value="&lt;font face=&quot;Times New Roman&quot; style=&quot;font-size: 10px&quot;&gt;Humour&lt;/font&gt;" style="rounded=0;whiteSpace=wrap;html=1;fillColor=#1ba1e2;fontColor=#ffffff;strokeColor=#FFFFFF;" vertex="1" parent="pmA7vRkRfB0VJjXid8ay-1">
                    <mxGeometry x="165" y="400" width="40" height="20" as="geometry"/>
                </mxCell>
                <mxCell id="uikIPxH3CUJWsQ4aGfVe-47" style="edgeStyle=orthogonalEdgeStyle;rounded=0;orthogonalLoop=1;jettySize=auto;html=1;entryX=0.75;entryY=1;entryDx=0;entryDy=0;" edge="1" parent="pmA7vRkRfB0VJjXid8ay-1" source="uikIPxH3CUJWsQ4aGfVe-31" target="uikIPxH3CUJWsQ4aGfVe-23">
                    <mxGeometry relative="1" as="geometry"/>
                </mxCell>
                <mxCell id="uikIPxH3CUJWsQ4aGfVe-31" value="&lt;font face=&quot;Times New Roman&quot; style=&quot;font-size: 10px&quot;&gt;7&lt;/font&gt;" style="rounded=0;whiteSpace=wrap;html=1;fillColor=#a20025;fontColor=#ffffff;strokeColor=#FFFFFF;" vertex="1" parent="pmA7vRkRfB0VJjXid8ay-1">
                    <mxGeometry x="140" y="360" width="20" height="20" as="geometry"/>
                </mxCell>
                <mxCell id="uikIPxH3CUJWsQ4aGfVe-34" style="edgeStyle=orthogonalEdgeStyle;rounded=0;orthogonalLoop=1;jettySize=auto;html=1;" edge="1" parent="pmA7vRkRfB0VJjXid8ay-1" source="uikIPxH3CUJWsQ4aGfVe-33">
                    <mxGeometry relative="1" as="geometry">
                        <mxPoint x="165" y="420" as="targetPoint"/>
                        <Array as="points">
                            <mxPoint x="10" y="440"/>
                            <mxPoint x="165" y="440"/>
                        </Array>
                    </mxGeometry>
                </mxCell>
                <mxCell id="uikIPxH3CUJWsQ4aGfVe-36" style="edgeStyle=orthogonalEdgeStyle;rounded=0;orthogonalLoop=1;jettySize=auto;html=1;entryX=0;entryY=0.5;entryDx=0;entryDy=0;" edge="1" parent="pmA7vRkRfB0VJjXid8ay-1" source="uikIPxH3CUJWsQ4aGfVe-33" target="uikIPxH3CUJWsQ4aGfVe-35">
                    <mxGeometry relative="1" as="geometry"/>
                </mxCell>
                <mxCell id="uikIPxH3CUJWsQ4aGfVe-33" value="&lt;font face=&quot;Times New Roman&quot; style=&quot;font-size: 10px&quot;&gt;5&lt;/font&gt;" style="rounded=0;whiteSpace=wrap;html=1;fillColor=#a20025;fontColor=#ffffff;strokeColor=#FFFFFF;" vertex="1" parent="pmA7vRkRfB0VJjXid8ay-1">
                    <mxGeometry y="460" width="20" height="20" as="geometry"/>
                </mxCell>
                <mxCell id="uikIPxH3CUJWsQ4aGfVe-38" style="edgeStyle=orthogonalEdgeStyle;rounded=0;orthogonalLoop=1;jettySize=auto;html=1;entryX=0;entryY=0.5;entryDx=0;entryDy=0;" edge="1" parent="pmA7vRkRfB0VJjXid8ay-1" source="uikIPxH3CUJWsQ4aGfVe-35" target="uikIPxH3CUJWsQ4aGfVe-37">
                    <mxGeometry relative="1" as="geometry"/>
                </mxCell>
                <mxCell id="uikIPxH3CUJWsQ4aGfVe-35" value="&lt;font face=&quot;Times New Roman&quot; style=&quot;font-size: 10px&quot;&gt;Hopeless Romantic&lt;/font&gt;" style="rounded=0;whiteSpace=wrap;html=1;fontColor=#ffffff;fillColor=#5800B0;strokeColor=#FFFFFF;" vertex="1" parent="pmA7vRkRfB0VJjXid8ay-1">
                    <mxGeometry x="40" y="460" width="90" height="20" as="geometry"/>
                </mxCell>
                <mxCell id="uikIPxH3CUJWsQ4aGfVe-58" style="edgeStyle=orthogonalEdgeStyle;rounded=0;orthogonalLoop=1;jettySize=auto;html=1;exitX=1;exitY=0;exitDx=0;exitDy=0;entryX=0.25;entryY=1;entryDx=0;entryDy=0;" edge="1" parent="pmA7vRkRfB0VJjXid8ay-1" source="uikIPxH3CUJWsQ4aGfVe-37" target="uikIPxH3CUJWsQ4aGfVe-55">
                    <mxGeometry relative="1" as="geometry">
                        <Array as="points">
                            <mxPoint x="190" y="450"/>
                            <mxPoint x="295" y="450"/>
                        </Array>
                    </mxGeometry>
                </mxCell>
                <mxCell id="uikIPxH3CUJWsQ4aGfVe-37" value="&lt;font face=&quot;Times New Roman&quot; style=&quot;font-size: 10px&quot;&gt;Romance&lt;/font&gt;" style="rounded=0;whiteSpace=wrap;html=1;fillColor=#1ba1e2;fontColor=#ffffff;strokeColor=#FFFFFF;" vertex="1" parent="pmA7vRkRfB0VJjXid8ay-1">
                    <mxGeometry x="150" y="460" width="40" height="20" as="geometry"/>
                </mxCell>
                <mxCell id="uikIPxH3CUJWsQ4aGfVe-41" style="edgeStyle=orthogonalEdgeStyle;rounded=0;orthogonalLoop=1;jettySize=auto;html=1;entryX=0.25;entryY=1;entryDx=0;entryDy=0;" edge="1" parent="pmA7vRkRfB0VJjXid8ay-1" source="uikIPxH3CUJWsQ4aGfVe-39" target="uikIPxH3CUJWsQ4aGfVe-23">
                    <mxGeometry relative="1" as="geometry"/>
                </mxCell>
                <mxCell id="uikIPxH3CUJWsQ4aGfVe-39" value="&lt;font face=&quot;Times New Roman&quot; style=&quot;font-size: 10px&quot;&gt;Brooding&lt;/font&gt;" style="rounded=0;whiteSpace=wrap;html=1;fontColor=#ffffff;fillColor=#5800B0;strokeColor=#FFFFFF;" vertex="1" parent="pmA7vRkRfB0VJjXid8ay-1">
                    <mxGeometry x="40" y="360" width="50" height="20" as="geometry"/>
                </mxCell>
                <mxCell id="uikIPxH3CUJWsQ4aGfVe-45" style="edgeStyle=orthogonalEdgeStyle;rounded=0;orthogonalLoop=1;jettySize=auto;html=1;entryX=0.5;entryY=1;entryDx=0;entryDy=0;" edge="1" parent="pmA7vRkRfB0VJjXid8ay-1" source="uikIPxH3CUJWsQ4aGfVe-42" target="uikIPxH3CUJWsQ4aGfVe-44">
                    <mxGeometry relative="1" as="geometry"/>
                </mxCell>
                <mxCell id="uikIPxH3CUJWsQ4aGfVe-42" value="&lt;font face=&quot;Times New Roman&quot; style=&quot;font-size: 10px&quot;&gt;3 Humour&lt;/font&gt;" style="rounded=0;whiteSpace=wrap;html=1;strokeColor=#FFFFFF;" vertex="1" parent="pmA7vRkRfB0VJjXid8ay-1">
                    <mxGeometry x="205" y="370" width="50" height="20" as="geometry"/>
                </mxCell>
                <mxCell id="uikIPxH3CUJWsQ4aGfVe-44" value="&lt;font face=&quot;Times New Roman&quot; style=&quot;font-size: 10px&quot;&gt;Satire&lt;/font&gt;" style="rounded=0;whiteSpace=wrap;html=1;fillColor=#1ba1e2;fontColor=#ffffff;strokeColor=#FFFFFF;" vertex="1" parent="pmA7vRkRfB0VJjXid8ay-1">
                    <mxGeometry x="215" y="330" width="30" height="20" as="geometry"/>
                </mxCell>
                <mxCell id="uikIPxH3CUJWsQ4aGfVe-49" style="edgeStyle=orthogonalEdgeStyle;rounded=0;orthogonalLoop=1;jettySize=auto;html=1;" edge="1" parent="pmA7vRkRfB0VJjXid8ay-1" source="uikIPxH3CUJWsQ4aGfVe-48" target="uikIPxH3CUJWsQ4aGfVe-44">
                    <mxGeometry relative="1" as="geometry"/>
                </mxCell>
                <mxCell id="uikIPxH3CUJWsQ4aGfVe-48" value="&lt;font face=&quot;Times New Roman&quot; style=&quot;font-size: 10px&quot;&gt;Avant Garde&lt;/font&gt;" style="rounded=0;whiteSpace=wrap;html=1;fontColor=#ffffff;fillColor=#5800B0;strokeColor=#FFFFFF;" vertex="1" parent="pmA7vRkRfB0VJjXid8ay-1">
                    <mxGeometry x="200" y="280" width="60" height="20" as="geometry"/>
                </mxCell>
                <mxCell id="uikIPxH3CUJWsQ4aGfVe-51" style="edgeStyle=orthogonalEdgeStyle;rounded=0;orthogonalLoop=1;jettySize=auto;html=1;exitX=1;exitY=0;exitDx=0;exitDy=0;entryX=0.25;entryY=1;entryDx=0;entryDy=0;" edge="1" parent="pmA7vRkRfB0VJjXid8ay-1" source="uikIPxH3CUJWsQ4aGfVe-50" target="uikIPxH3CUJWsQ4aGfVe-48">
                    <mxGeometry relative="1" as="geometry">
                        <Array as="points">
                            <mxPoint x="200" y="320"/>
                            <mxPoint x="215" y="320"/>
                        </Array>
                    </mxGeometry>
                </mxCell>
                <mxCell id="uikIPxH3CUJWsQ4aGfVe-52" style="edgeStyle=orthogonalEdgeStyle;rounded=0;orthogonalLoop=1;jettySize=auto;html=1;entryX=0.75;entryY=1;entryDx=0;entryDy=0;" edge="1" parent="pmA7vRkRfB0VJjXid8ay-1" source="uikIPxH3CUJWsQ4aGfVe-50" target="uikIPxH3CUJWsQ4aGfVe-24">
                    <mxGeometry relative="1" as="geometry">
                        <Array as="points">
                            <mxPoint x="180" y="320"/>
                            <mxPoint x="170" y="320"/>
                        </Array>
                    </mxGeometry>
                </mxCell>
                <mxCell id="uikIPxH3CUJWsQ4aGfVe-50" value="&lt;font face=&quot;Times New Roman&quot; style=&quot;font-size: 10px&quot;&gt;4&lt;/font&gt;" style="rounded=0;whiteSpace=wrap;html=1;fillColor=#a20025;fontColor=#ffffff;strokeColor=#FFFFFF;" vertex="1" parent="pmA7vRkRfB0VJjXid8ay-1">
                    <mxGeometry x="180" y="330" width="20" height="20" as="geometry"/>
                </mxCell>
                <mxCell id="uikIPxH3CUJWsQ4aGfVe-54" style="edgeStyle=orthogonalEdgeStyle;rounded=0;orthogonalLoop=1;jettySize=auto;html=1;entryX=1;entryY=0.5;entryDx=0;entryDy=0;" edge="1" parent="pmA7vRkRfB0VJjXid8ay-1" source="uikIPxH3CUJWsQ4aGfVe-53" target="uikIPxH3CUJWsQ4aGfVe-37">
                    <mxGeometry relative="1" as="geometry"/>
                </mxCell>
                <mxCell id="uikIPxH3CUJWsQ4aGfVe-56" style="edgeStyle=orthogonalEdgeStyle;rounded=0;orthogonalLoop=1;jettySize=auto;html=1;entryX=0.5;entryY=1;entryDx=0;entryDy=0;" edge="1" parent="pmA7vRkRfB0VJjXid8ay-1" source="uikIPxH3CUJWsQ4aGfVe-53" target="uikIPxH3CUJWsQ4aGfVe-55">
                    <mxGeometry relative="1" as="geometry"/>
                </mxCell>
                <mxCell id="uikIPxH3CUJWsQ4aGfVe-53" value="&lt;font face=&quot;Times New Roman&quot; style=&quot;font-size: 10px&quot;&gt;10&lt;/font&gt;" style="rounded=0;whiteSpace=wrap;html=1;fillColor=#a20025;fontColor=#ffffff;strokeColor=#FFFFFF;" vertex="1" parent="pmA7vRkRfB0VJjXid8ay-1">
                    <mxGeometry x="300" y="460" width="20" height="20" as="geometry"/>
                </mxCell>
                <mxCell id="uikIPxH3CUJWsQ4aGfVe-60" style="edgeStyle=orthogonalEdgeStyle;rounded=0;orthogonalLoop=1;jettySize=auto;html=1;entryX=1;entryY=0.5;entryDx=0;entryDy=0;" edge="1" parent="pmA7vRkRfB0VJjXid8ay-1" source="uikIPxH3CUJWsQ4aGfVe-55" target="uikIPxH3CUJWsQ4aGfVe-59">
                    <mxGeometry relative="1" as="geometry"/>
                </mxCell>
                <mxCell id="uikIPxH3CUJWsQ4aGfVe-55" value="&lt;font face=&quot;Times New Roman&quot; style=&quot;font-size: 10px&quot;&gt;2 Sci-Fi&lt;br&gt;2 Drama&lt;br&gt;2 Humour&lt;br&gt;2 Mystery&lt;br&gt;2 Romance&lt;br&gt;&lt;/font&gt;" style="rounded=0;whiteSpace=wrap;html=1;strokeColor=#FFFFFF;" vertex="1" parent="pmA7vRkRfB0VJjXid8ay-1">
                    <mxGeometry x="280" y="210" width="60" height="80" as="geometry"/>
                </mxCell>
                <mxCell id="uikIPxH3CUJWsQ4aGfVe-59" value="&lt;font face=&quot;Times New Roman&quot; style=&quot;font-size: 10px&quot;&gt;Vaudeville&lt;/font&gt;" style="rounded=0;whiteSpace=wrap;html=1;fillColor=#1ba1e2;fontColor=#ffffff;strokeColor=#FFFFFF;" vertex="1" parent="pmA7vRkRfB0VJjXid8ay-1">
                    <mxGeometry x="200" y="240" width="50" height="20" as="geometry"/>
                </mxCell>
                <mxCell id="uikIPxH3CUJWsQ4aGfVe-65" style="edgeStyle=orthogonalEdgeStyle;rounded=0;orthogonalLoop=1;jettySize=auto;html=1;" edge="1" parent="pmA7vRkRfB0VJjXid8ay-1" source="uikIPxH3CUJWsQ4aGfVe-61">
                    <mxGeometry relative="1" as="geometry">
                        <mxPoint x="340" y="290" as="targetPoint"/>
                        <Array as="points">
                            <mxPoint x="340" y="290"/>
                        </Array>
                    </mxGeometry>
                </mxCell>
                <mxCell id="uikIPxH3CUJWsQ4aGfVe-61" value="&lt;font face=&quot;Times New Roman&quot; style=&quot;font-size: 10px&quot;&gt;Mystery&lt;/font&gt;" style="rounded=0;whiteSpace=wrap;html=1;fillColor=#1ba1e2;fontColor=#ffffff;strokeColor=#FFFFFF;" vertex="1" parent="pmA7vRkRfB0VJjXid8ay-1">
                    <mxGeometry x="320" y="320" width="40" height="20" as="geometry"/>
                </mxCell>
                <mxCell id="uikIPxH3CUJWsQ4aGfVe-64" style="edgeStyle=orthogonalEdgeStyle;rounded=0;orthogonalLoop=1;jettySize=auto;html=1;entryX=0.5;entryY=1;entryDx=0;entryDy=0;" edge="1" parent="pmA7vRkRfB0VJjXid8ay-1" source="uikIPxH3CUJWsQ4aGfVe-62" target="uikIPxH3CUJWsQ4aGfVe-61">
                    <mxGeometry relative="1" as="geometry"/>
                </mxCell>
                <mxCell id="uikIPxH3CUJWsQ4aGfVe-62" value="&lt;font face=&quot;Times New Roman&quot; style=&quot;font-size: 10px&quot;&gt;8&lt;/font&gt;" style="rounded=0;whiteSpace=wrap;html=1;fillColor=#a20025;fontColor=#ffffff;strokeColor=#FFFFFF;" vertex="1" parent="pmA7vRkRfB0VJjXid8ay-1">
                    <mxGeometry x="330" y="360" width="20" height="20" as="geometry"/>
                </mxCell>
                <mxCell id="uikIPxH3CUJWsQ4aGfVe-69" style="edgeStyle=orthogonalEdgeStyle;rounded=0;orthogonalLoop=1;jettySize=auto;html=1;entryX=1;entryY=0.5;entryDx=0;entryDy=0;exitX=0.5;exitY=0;exitDx=0;exitDy=0;" edge="1" parent="pmA7vRkRfB0VJjXid8ay-1" source="uikIPxH3CUJWsQ4aGfVe-66" target="uikIPxH3CUJWsQ4aGfVe-68">
                    <mxGeometry relative="1" as="geometry">
                        <Array as="points">
                            <mxPoint x="470" y="250"/>
                        </Array>
                    </mxGeometry>
                </mxCell>
                <mxCell id="uikIPxH3CUJWsQ4aGfVe-74" style="edgeStyle=orthogonalEdgeStyle;rounded=0;orthogonalLoop=1;jettySize=auto;html=1;" edge="1" parent="pmA7vRkRfB0VJjXid8ay-1" source="uikIPxH3CUJWsQ4aGfVe-66" target="uikIPxH3CUJWsQ4aGfVe-71">
                    <mxGeometry relative="1" as="geometry"/>
                </mxCell>
                <mxCell id="uikIPxH3CUJWsQ4aGfVe-78" style="edgeStyle=orthogonalEdgeStyle;rounded=0;orthogonalLoop=1;jettySize=auto;html=1;entryX=1;entryY=0.5;entryDx=0;entryDy=0;strokeColor=#FFFFFF;" edge="1" parent="pmA7vRkRfB0VJjXid8ay-1" source="uikIPxH3CUJWsQ4aGfVe-66" target="uikIPxH3CUJWsQ4aGfVe-75">
                    <mxGeometry relative="1" as="geometry">
                        <Array as="points">
                            <mxPoint x="470" y="370"/>
                        </Array>
                    </mxGeometry>
                </mxCell>
                <mxCell id="uikIPxH3CUJWsQ4aGfVe-66" value="&lt;font face=&quot;Times New Roman&quot; style=&quot;font-size: 10px&quot;&gt;3&lt;/font&gt;" style="rounded=0;whiteSpace=wrap;html=1;fillColor=#a20025;fontColor=#ffffff;strokeColor=#FFFFFF;" vertex="1" parent="pmA7vRkRfB0VJjXid8ay-1">
                    <mxGeometry x="460" y="280" width="20" height="20" as="geometry"/>
                </mxCell>
                <mxCell id="uikIPxH3CUJWsQ4aGfVe-67" value="&lt;font face=&quot;Times New Roman&quot; style=&quot;font-size: 10px&quot;&gt;Children's&lt;/font&gt;" style="rounded=0;whiteSpace=wrap;html=1;fillColor=#1ba1e2;fontColor=#ffffff;strokeColor=#FFFFFF;" vertex="1" parent="pmA7vRkRfB0VJjXid8ay-1">
                    <mxGeometry x="400" y="400" width="50" height="20" as="geometry"/>
                </mxCell>
                <mxCell id="uikIPxH3CUJWsQ4aGfVe-70" style="edgeStyle=orthogonalEdgeStyle;rounded=0;orthogonalLoop=1;jettySize=auto;html=1;entryX=1;entryY=0.5;entryDx=0;entryDy=0;exitX=0;exitY=0.5;exitDx=0;exitDy=0;" edge="1" parent="pmA7vRkRfB0VJjXid8ay-1" source="uikIPxH3CUJWsQ4aGfVe-68" target="uikIPxH3CUJWsQ4aGfVe-55">
                    <mxGeometry relative="1" as="geometry"/>
                </mxCell>
                <mxCell id="uikIPxH3CUJWsQ4aGfVe-68" value="&lt;font face=&quot;Times New Roman&quot; style=&quot;font-size: 10px&quot;&gt;Drama&lt;/font&gt;" style="rounded=0;whiteSpace=wrap;html=1;fillColor=#1ba1e2;fontColor=#ffffff;strokeColor=#FFFFFF;" vertex="1" parent="pmA7vRkRfB0VJjXid8ay-1">
                    <mxGeometry x="400" y="240" width="40" height="20" as="geometry"/>
                </mxCell>
                <mxCell id="uikIPxH3CUJWsQ4aGfVe-71" value="&lt;font face=&quot;Times New Roman&quot; style=&quot;font-size: 10px&quot;&gt;Sports&lt;/font&gt;" style="rounded=0;whiteSpace=wrap;html=1;fillColor=#1ba1e2;fontColor=#ffffff;strokeColor=#FFFFFF;" vertex="1" parent="pmA7vRkRfB0VJjXid8ay-1">
                    <mxGeometry x="400" y="280" width="40" height="20" as="geometry"/>
                </mxCell>
                <mxCell id="uikIPxH3CUJWsQ4aGfVe-76" style="edgeStyle=orthogonalEdgeStyle;rounded=0;orthogonalLoop=1;jettySize=auto;html=1;entryX=0.5;entryY=1;entryDx=0;entryDy=0;" edge="1" parent="pmA7vRkRfB0VJjXid8ay-1" source="uikIPxH3CUJWsQ4aGfVe-72" target="uikIPxH3CUJWsQ4aGfVe-71">
                    <mxGeometry relative="1" as="geometry"/>
                </mxCell>
                <mxCell id="uikIPxH3CUJWsQ4aGfVe-72" value="&lt;font face=&quot;Times New Roman&quot; style=&quot;font-size: 10px&quot;&gt;Sports Agent 3&lt;/font&gt;" style="rounded=0;whiteSpace=wrap;html=1;fontColor=#ffffff;fillColor=#60a917;strokeColor=#FFFFFF;" vertex="1" parent="pmA7vRkRfB0VJjXid8ay-1">
                    <mxGeometry x="380" y="320" width="80" height="20" as="geometry"/>
                </mxCell>
                <mxCell id="uikIPxH3CUJWsQ4aGfVe-79" style="edgeStyle=orthogonalEdgeStyle;rounded=0;orthogonalLoop=1;jettySize=auto;html=1;entryX=0.5;entryY=0;entryDx=0;entryDy=0;strokeColor=#FFFFFF;" edge="1" parent="pmA7vRkRfB0VJjXid8ay-1" source="uikIPxH3CUJWsQ4aGfVe-75" target="uikIPxH3CUJWsQ4aGfVe-67">
                    <mxGeometry relative="1" as="geometry"/>
                </mxCell>
                <mxCell id="uikIPxH3CUJWsQ4aGfVe-75" value="&lt;font face=&quot;Times New Roman&quot;&gt;&lt;span style=&quot;font-size: 10px&quot;&gt;Painting 4&lt;/span&gt;&lt;/font&gt;" style="rounded=0;whiteSpace=wrap;html=1;fillColor=#e3c800;fontColor=#ffffff;strokeColor=#FFFFFF;" vertex="1" parent="pmA7vRkRfB0VJjXid8ay-1">
                    <mxGeometry x="400" y="360" width="50" height="20" as="geometry"/>
                </mxCell>
                <mxCell id="uikIPxH3CUJWsQ4aGfVe-83" style="edgeStyle=orthogonalEdgeStyle;rounded=0;orthogonalLoop=1;jettySize=auto;html=1;strokeColor=#FFFFFF;entryX=0.25;entryY=0;entryDx=0;entryDy=0;" edge="1" parent="pmA7vRkRfB0VJjXid8ay-1" source="uikIPxH3CUJWsQ4aGfVe-80" target="uikIPxH3CUJWsQ4aGfVe-81">
                    <mxGeometry relative="1" as="geometry">
                        <Array as="points">
                            <mxPoint x="410" y="160"/>
                            <mxPoint x="423" y="160"/>
                        </Array>
                    </mxGeometry>
                </mxCell>
                <mxCell id="uikIPxH3CUJWsQ4aGfVe-80" value="&lt;font face=&quot;Times New Roman&quot;&gt;&lt;span style=&quot;font-size: 10px&quot;&gt;6&lt;/span&gt;&lt;/font&gt;" style="rounded=0;whiteSpace=wrap;html=1;fillColor=#a20025;fontColor=#ffffff;strokeColor=#FFFFFF;" vertex="1" parent="pmA7vRkRfB0VJjXid8ay-1">
                    <mxGeometry x="400" y="120" width="20" height="20" as="geometry"/>
                </mxCell>
                <mxCell id="uikIPxH3CUJWsQ4aGfVe-81" value="&lt;font face=&quot;Times New Roman&quot; style=&quot;font-size: 10px&quot;&gt;Historical&lt;/font&gt;" style="rounded=0;whiteSpace=wrap;html=1;fillColor=#1ba1e2;fontColor=#ffffff;strokeColor=#FFFFFF;" vertex="1" parent="pmA7vRkRfB0VJjXid8ay-1">
                    <mxGeometry x="410" y="180" width="50" height="20" as="geometry"/>
                </mxCell>
                <mxCell id="uikIPxH3CUJWsQ4aGfVe-84" style="edgeStyle=orthogonalEdgeStyle;rounded=0;orthogonalLoop=1;jettySize=auto;html=1;entryX=0.75;entryY=0;entryDx=0;entryDy=0;strokeColor=#FFFFFF;exitX=0.5;exitY=1;exitDx=0;exitDy=0;" edge="1" parent="pmA7vRkRfB0VJjXid8ay-1" source="uikIPxH3CUJWsQ4aGfVe-87" target="uikIPxH3CUJWsQ4aGfVe-81">
                    <mxGeometry relative="1" as="geometry">
                        <Array as="points">
                            <mxPoint x="460" y="160"/>
                            <mxPoint x="448" y="160"/>
                        </Array>
                    </mxGeometry>
                </mxCell>
                <mxCell id="uikIPxH3CUJWsQ4aGfVe-82" value="&lt;font face=&quot;Times New Roman&quot; style=&quot;font-size: 10px&quot;&gt;Age&lt;/font&gt;" style="rounded=0;whiteSpace=wrap;html=1;fillColor=#fa6800;fontColor=#ffffff;strokeColor=#FFFFFF;" vertex="1" parent="pmA7vRkRfB0VJjXid8ay-1">
                    <mxGeometry x="570" y="200" width="30" height="20" as="geometry"/>
                </mxCell>
                <mxCell id="uikIPxH3CUJWsQ4aGfVe-85" value="&lt;font face=&quot;Times New Roman&quot; style=&quot;font-size: 10px&quot;&gt;Genre&lt;/font&gt;" style="rounded=0;whiteSpace=wrap;html=1;fillColor=#1ba1e2;fontColor=#ffffff;strokeColor=#FFFFFF;" vertex="1" parent="pmA7vRkRfB0VJjXid8ay-1">
                    <mxGeometry x="550" y="180" width="50" height="20" as="geometry"/>
                </mxCell>
                <mxCell id="uikIPxH3CUJWsQ4aGfVe-86" value="&lt;font face=&quot;Times New Roman&quot; style=&quot;font-size: 10px&quot;&gt;Writing Level&lt;/font&gt;" style="rounded=0;whiteSpace=wrap;html=1;fillColor=#a20025;fontColor=#ffffff;strokeColor=#FFFFFF;" vertex="1" parent="pmA7vRkRfB0VJjXid8ay-1">
                    <mxGeometry x="530" y="220" width="70" height="20" as="geometry"/>
                </mxCell>
                <mxCell id="uikIPxH3CUJWsQ4aGfVe-87" value="&lt;font face=&quot;Times New Roman&quot; style=&quot;font-size: 10px&quot;&gt;Elder&lt;/font&gt;" style="rounded=0;whiteSpace=wrap;html=1;fillColor=#fa6800;fontColor=#ffffff;strokeColor=#FFFFFF;" vertex="1" parent="pmA7vRkRfB0VJjXid8ay-1">
                    <mxGeometry x="440" y="120" width="40" height="20" as="geometry"/>
                </mxCell>
                <mxCell id="uikIPxH3CUJWsQ4aGfVe-88" value="&lt;font face=&quot;Times New Roman&quot;&gt;&lt;span style=&quot;font-size: 10px&quot;&gt;Skill&lt;/span&gt;&lt;/font&gt;" style="rounded=0;whiteSpace=wrap;html=1;fillColor=#e3c800;fontColor=#ffffff;strokeColor=#FFFFFF;" vertex="1" parent="pmA7vRkRfB0VJjXid8ay-1">
                    <mxGeometry x="520" y="240" width="30" height="20" as="geometry"/>
                </mxCell>
                <mxCell id="uikIPxH3CUJWsQ4aGfVe-89" value="&lt;font face=&quot;Times New Roman&quot; style=&quot;font-size: 10px&quot;&gt;Trait&lt;/font&gt;" style="rounded=0;whiteSpace=wrap;html=1;fontColor=#ffffff;fillColor=#5800B0;strokeColor=#FFFFFF;" vertex="1" parent="pmA7vRkRfB0VJjXid8ay-1">
                    <mxGeometry x="540" y="200" width="30" height="20" as="geometry"/>
                </mxCell>
                <mxCell id="uikIPxH3CUJWsQ4aGfVe-90" value="&lt;font face=&quot;Times New Roman&quot; style=&quot;font-size: 10px&quot;&gt;Profession&lt;/font&gt;" style="rounded=0;whiteSpace=wrap;html=1;fontColor=#ffffff;fillColor=#60a917;strokeColor=#FFFFFF;" vertex="1" parent="pmA7vRkRfB0VJjXid8ay-1">
                    <mxGeometry x="550" y="240" width="50" height="20" as="geometry"/>
                </mxCell>
            </root>
        </mxGraphModel>
    </diagram>
</mxfile>